<svg class="heart" xmlns="http://www.w3.org/2000/svg" xmlns:xlink="http://www.w3.org/1999/xlink" x="0px" y="0px"
	 viewBox="0 0 512 512" style="enable-background:new 0 0 512 512;" xml:space="preserve">
    <path d="M256,474.9c-7,0-13.8-2.5-19-7.1c-19.9-17.4-39-33.7-55.9-48.1l-0.1-0.1c-49.6-42.2-92.4-78.7-122.2-114.7
	C25.5,264.7,10,226.6,10,185c0-40.4,13.9-77.7,39-105c25.5-27.6,60.4-42.8,98.4-42.8c33.7,0,54.4,9,77.3,26.7
	c12.8,9.9,22.7,20.8,31.3,32.6c9.2-12.8,19.7-23.7,31.3-32.6c22.9-17.7,48.9-26.7,77.3-26.7c38,0,72.9,15.2,98.4,42.8
	c25.2,27.3,39,64.6,39,105c0,41.6-15.5,79.7-48.8,119.9c-29.8,35.9-72.6,72.4-122.1,114.6c-16.9,14.4-36.1,30.8-56,48.2
	C269.8,472.3,263,474.9,256,474.9z"/>
</svg>
