<svg class="star" xmlns="http://www.w3.org/2000/svg" xmlns:xlink="http://www.w3.org/1999/xlink" x="0px" y="0px"
	 viewBox="0 0 441 422.4" style="enable-background:new 0 0 441 422.4;" xml:space="preserve">
	<path d="M425.4,163.3c-1.3-4.1-4.9-7.1-9.2-7.8L288,137.3l-57.7-116c-1.9-3.9-5.9-6.3-10.2-6.3l0,0
		c-4.3,0-8.3,2.4-10.2,6.4L153,137.7L24.7,156.8c-4.3,0.7-7.8,3.6-9.2,7.8c-1.3,4.1-0.2,8.7,3,11.6l93,90.2L90,394.1
		c-0.8,4.3,1,8.6,4.6,11.1c1.9,1.4,4.3,2.2,6.7,2.2c1.9,0,3.6-0.4,5.3-1.3L221,345.4l114.8,60c1.7,0.8,3.5,1.3,5.2,1.3l0,0
		c6.2,0,11.4-5.1,11.4-11.4c0-0.9-0.1-1.8-0.3-2.6l-22.2-127l92.5-90.7C425.7,172,426.8,167.4,425.4,163.3z"/>
</svg>
